<?xml version="1.0" encoding="UTF-8" standalone="no"?>
<svg
   version="1.2"
   width="5.02mm"
   height="5.02mm"
   viewBox="0 0 502 502"
   preserveAspectRatio="xMidYMid"
   fill-rule="evenodd"
   stroke-width="28.222"
   stroke-linejoin="round"
   xml:space="preserve"
   id="svg89"
   xmlns="http://www.w3.org/2000/svg">
 <defs
   class="ClipPathGroup"
   id="defs8"><clipPath
     id="presentation_clip_path"
     clipPathUnits="userSpaceOnUse">
   <rect
   x="0"
   y="0"
   width="502"
   height="502"
   id="rect2" />
  </clipPath></defs>
 <defs
   class="TextShapeIndex"
   id="defs12" />
 <defs
   class="EmbeddedBulletChars"
   id="defs44" />
 
 <g
   class="SlideGroup"
   id="g87">
  <g
   id="g85">
   <g
   id="container-id1">
    <g
   id="id1"
   class="Slide"
   clip-path="url(#presentation_clip_path)">
     <g
   class="Page"
   id="g81">
      <g
   class="com.sun.star.drawing.ClosedBezierShape"
   id="g56">
       <g
   id="id3">
        <rect
   class="BoundingBox"
   stroke="none"
   fill="none"
   x="71"
   y="116"
   width="141"
   height="265"
   id="rect51" />
        <path
   fill="#f9dcbe"
   stroke="none"
   d="m 76,257 c -6,-6 -6,-11 0,-17 L 183,122 c 10,-10 28,-4 28,11 v 230 c 0,15 -18,22 -28,11 z"
   id="path53" />
       </g>
      </g>
      <g
   class="com.sun.star.drawing.ClosedBezierShape"
   id="g63">
       <g
   id="id4">
        <rect
   class="BoundingBox"
   stroke="none"
   fill="none"
   x="58"
   y="103"
   width="167"
   height="291"
   id="rect58" />
        <path
   fill="none"
   stroke="#ff8000"
   stroke-width="26"
   stroke-linejoin="miter"
   stroke-linecap="round"
   d="m 76,257 c -6,-6 -6,-11 0,-17 L 183,122 c 10,-10 28,-4 28,11 v 230 c 0,15 -18,22 -28,11 z"
   id="path60" />
       </g>
      </g>
      <g
   class="com.sun.star.drawing.ClosedBezierShape"
   id="g70">
       <g
   id="id5">
        <rect
   class="BoundingBox"
   stroke="none"
   fill="none"
   x="285"
   y="116"
   width="141"
   height="265"
   id="rect65" />
        <path
   fill="#f2fcf3"
   stroke="none"
   d="m 421,240 c 5,6 5,10 0,16 L 313,374 c -10,11 -28,4 -28,-11 V 133 c 0,-15 18,-22 28,-11 z"
   id="path67" />
       </g>
      </g>
      <g
   class="com.sun.star.drawing.ClosedBezierShape"
   id="g79">
       <g
   id="id6">
        <rect
   class="BoundingBox"
   stroke="none"
   fill="none"
   x="272"
   y="103"
   width="167"
   height="291"
   id="rect72" />
        <path
   fill="#d8e9fa"
   stroke="none"
   d="m 421,240 c 5,6 5,10 0,16 L 313,374 c -10,11 -28,4 -28,-11 V 133 c 0,-15 18,-22 28,-11 z"
   id="path74" />
        <path
   fill="none"
   stroke="#157be7"
   stroke-width="26"
   stroke-linejoin="miter"
   stroke-linecap="round"
   d="m 421,240 c 5,6 5,10 0,16 L 313,374 c -10,11 -28,4 -28,-11 V 133 c 0,-15 18,-22 28,-11 z"
   id="path76" />
       </g>
      </g>
     </g>
    </g>
   </g>
  </g>
 </g>
</svg>
